<svg width="100%" viewBox="0 0 680 500" xmlns="http://www.w3.org/2000/svg" role="img">
<title>普通兵静态造型概念图</title>
<desc>火柴人风格的普通兵单位，手持长剑，迈步前进姿势，绘制在方格纸背景上</desc>
<style>
.p{stroke:#1C1C1C;fill:none;stroke-linecap:round;stroke-linejoin:round}
</style>
<defs>
<pattern id="sg" width="20" height="20" patternUnits="userSpaceOnUse">
<path d="M20 0L0 0L0 20" fill="none" stroke="#BDD0DF" stroke-width="0.45"/>
</pattern>
<pattern id="bg" width="100" height="100" patternUnits="userSpaceOnUse">
<rect width="100" height="100" fill="url(#sg)"/>
<path d="M100 0L0 0L0 100" fill="none" stroke="#9FBDCE" stroke-width="0.85"/>
</pattern>
</defs>

<rect width="680" height="500" fill="#F3EDE3"/>
<rect width="680" height="500" fill="url(#bg)"/>

<circle cx="310" cy="88" r="38" class="p" stroke-width="3.2"/>
<circle cx="319" cy="84" r="3.8" fill="#1C1C1C"/>
<circle cx="331" cy="83" r="3.8" fill="#1C1C1C"/>

<path d="M310 126 Q311 137 311 148" class="p" stroke-width="2.8"/>
<path d="M311 148 Q314 193 312 255" class="p" stroke-width="3.4"/>

<path d="M312 183 Q336 170 358 157" class="p" stroke-width="3"/>
<path d="M358 157 Q379 144 396 131" class="p" stroke-width="2.8"/>

<path d="M312 183 Q290 195 270 207" class="p" stroke-width="3"/>
<path d="M270 207 Q252 220 238 234" class="p" stroke-width="2.8"/>

<path d="M312 255 Q329 290 339 319" class="p" stroke-width="3.2"/>
<path d="M339 319 Q348 349 356 378" class="p" stroke-width="3"/>
<path d="M356 378 Q368 383 383 381" class="p" stroke-width="2.6"/>

<path d="M312 255 Q294 288 283 315" class="p" stroke-width="3.2"/>
<path d="M283 315 Q271 344 263 372" class="p" stroke-width="3"/>
<path d="M263 372 Q249 377 234 375" class="p" stroke-width="2.6"/>

<path d="M396 131 Q406 119 414 108" class="p" stroke-width="3.8"/>
<path d="M387 127 Q402 117 419 110" class="p" stroke-width="2.3"/>
<polygon points="411,102 420,109 470,38" fill="#1C1C1C"/>

<ellipse cx="308" cy="388" rx="72" ry="5" fill="none" stroke="#1C1C1C" stroke-width="0.9" opacity="0.16"/>

<text x="310" y="432" text-anchor="middle" fill="#1C1C1C" font-family="sans-serif" font-size="17" font-weight="500" opacity="0.88">普通兵（Swordsman）</text>
<text x="310" y="456" text-anchor="middle" fill="#888" font-family="sans-serif" font-size="13">铅笔灰  ·  近战  ·  费用 4（出 2 个）</text>
</svg>
